<svg viewBox="0 0 388 388" xmlns="http://www.w3.org/2000/svg" preserveAspectRatio="xMidYMid meet">
<g>
<title>JS Logo</title>
<rect id="svg_1" height="385.99999" width="385.99999" fill="#F0DB4F" y="0" x="1"/>
<path id="svg_3" d="m355.40823,294.93976c-2.82535,-17.61218 -14.30991,-32.39905 -48.32343,-46.19528c-11.81485,-5.43039 -24.98724,-9.31973 -28.9133,-18.27258c-1.39432,-5.2103 -1.57776,-8.14566 -0.69714,-11.30115c2.53174,-10.23711 14.75015,-13.42928 24.43689,-10.49391c6.23761,2.09143 12.14505,6.89813 15.70416,14.56674c16.6582,-10.78746 16.62149,-10.71405 28.25287,-18.12584c-4.25629,-6.60458 -6.53119,-9.64999 -9.31976,-12.47531c-10.01697,-11.1911 -23.66638,-16.95172 -45.49814,-16.51143c-3.77927,0.47707 -7.59521,0.99071 -11.37454,1.4677c-10.89749,2.75195 -21.28134,8.47589 -27.37218,16.14447c-18.27264,20.73103 -13.06241,57.01938 9.17299,71.95303c21.90512,16.43802 54.08405,20.18057 58.19351,35.55466c3.99945,18.823 -13.83289,24.91385 -31.55515,22.74893c-13.06232,-2.71518 -20.32733,-9.35645 -28.17947,-21.42813c-14.45663,8.36578 -14.45663,8.36578 -29.31688,16.91507c3.5224,7.70532 7.22829,11.19107 13.13573,17.86908c27.95935,28.36282 97.93097,26.96863 110.47964,-15.96109c0.51367,-1.46762 3.88934,-11.30115 1.17419,-26.45496zm-144.56654,-116.53384l-36.10498,0c0,31.18823 -0.14676,62.15623 -0.14676,93.34448c0,19.85037 1.0274,38.04959 -2.20151,43.6268c-5.28365,10.97098 -18.96976,9.61331 -25.2074,7.4852c-6.34776,-3.11884 -9.57669,-7.55859 -13.31921,-13.83289c-1.02739,-1.79794 -1.79791,-3.19226 -2.05476,-3.30231c-9.79678,5.9808 -19.55684,11.99832 -29.35361,17.97906c4.88005,10.01694 12.07166,18.71292 21.28138,24.36353c13.75951,8.25571 32.25227,10.78748 51.58894,6.34772c12.58537,-3.66919 23.44623,-11.26447 29.13348,-22.82245c8.21901,-15.15378 6.45781,-33.49979 6.38443,-53.7905c0.18341,-33.09622 0,-66.1924 0,-99.39865z" fill="#323330"/>
</g>
<g id="bart">
<style>
<![CDATA[
#bart {
    -webkit-transform-origin: 50% 50% 0;
    transform-origin: 50% 50% 0;
    -webkit-animation: snurr 10s infinite;
animation: snurr 10s infinite;
}

@-webkit-keyframes snurr {
    0%, 10% {
        -webkit-transform: rotate(0deg);
    }

    2% {
        -webkit-transform: rotate(-20deg);
    }

    4% {
        -webkit-transform: rotate(10deg);
    }

    6% {
        -webkit-transform: rotate(-5deg);
    }

    8% {
        -webkit-transform: rotate(2.5deg);
    }

    100% {
        -webkit-transform: rotate(0deg);
    }
}

@keyframes snurr {
    0%, 10% {
transform: rotate(0deg);
    }

    2% {
transform: rotate(-20deg);
    }

    4% {
transform: rotate(10deg);
    }

    6% {
transform: rotate(-5deg);
    }

    8% {
transform: rotate(2.5deg);
    }

    100% {
transform: rotate(0deg);
    }
}
]]>
</style>
<title>Moustashe</title>
<path d="m192.89015,104.24084c-27.33296,41.54678 -100.03934,25.69299 -100.03934,25.69299c-47.55936,-14.21381 -38.81349,-44.82675 -38.81349,-44.82675c20.2264,-30.61292 38.26683,-7.10657 38.26683,-7.10657c3.28062,6.55991 -3.28062,6.55991 -3.28062,6.55991c-20.22707,-9.83987 -16.39978,6.01324 -16.39978,6.01324c16.94643,25.69303 58.49255,-11.47984 58.49255,-11.47984c40.4528,-27.87962 62.64932,5.23394 62.64932,5.23394l2.43877,-1.95398c0,0 20.22708,-31.15959 60.67986,-3.27996c0,0 41.54544,37.17349 58.49188,11.47984c0,0 3.82797,-15.85309 -16.39911,-6.01317c0,0 -6.56125,0 -3.28064,-6.55992c0,0 18.04047,-23.50568 38.26617,7.10658c0,0 8.74655,30.61293 -38.81281,44.82674c0,0 -72.70706,15.85379 -100.04001,-25.69299" id="svg_2" fill="#323330"/>
</g>
</svg>
